<svg id="Grupo_1127" data-name="Grupo 1127" xmlns="http://www.w3.org/2000/svg" width="18" height="20" viewBox="0 0 36.206 40.229">
  <rect id="Rectángulo_140" data-name="Rectángulo 140" width="3.291" height="3.657" transform="translate(32.915 25.6)"/>
  <rect id="Rectángulo_141" data-name="Rectángulo 141" width="3.291" height="3.657" transform="translate(32.915 21.943)"/>
  <rect id="Rectángulo_142" data-name="Rectángulo 142" width="3.291" height="3.657" transform="translate(32.915 18.286)"/>
  <rect id="Rectángulo_143" data-name="Rectángulo 143" width="3.291" height="3.657" transform="translate(32.915 14.629)"/>
  <rect id="Rectángulo_144" data-name="Rectángulo 144" width="3.291" height="3.657" transform="translate(32.915 10.972)"/>
  <rect id="Rectángulo_145" data-name="Rectángulo 145" width="3.657" height="3.657" transform="translate(29.258 29.258)"/>
  <rect id="Rectángulo_146" data-name="Rectángulo 146" width="3.657" height="3.657" transform="translate(29.258 25.6)" fill="#ffbf00"/>
  <rect id="Rectángulo_147" data-name="Rectángulo 147" width="3.657" height="3.657" transform="translate(29.258 21.943)" fill="#ffbf00"/>
  <rect id="Rectángulo_148" data-name="Rectángulo 148" width="3.657" height="3.657" transform="translate(29.258 18.286)" fill="#ffbf00"/>
  <rect id="Rectángulo_149" data-name="Rectángulo 149" width="3.657" height="3.657" transform="translate(29.258 14.629)" fill="#ffbf00"/>
  <rect id="Rectángulo_150" data-name="Rectángulo 150" width="3.657" height="3.657" transform="translate(29.258 10.972)" fill="#ffbf00"/>
  <rect id="Rectángulo_151" data-name="Rectángulo 151" width="3.657" height="3.657" transform="translate(29.258 7.314)"/>
  <rect id="Rectángulo_152" data-name="Rectángulo 152" width="3.657" height="3.657" transform="translate(25.6 32.915)"/>
  <rect id="Rectángulo_153" data-name="Rectángulo 153" width="3.657" height="3.657" transform="translate(25.6 29.258)" fill="#ffbf00"/>
  <rect id="Rectángulo_154" data-name="Rectángulo 154" width="3.657" height="3.657" transform="translate(25.6 25.6)" fill="#ffbf00"/>
  <rect id="Rectángulo_155" data-name="Rectángulo 155" width="3.657" height="3.657" transform="translate(25.6 21.943)" fill="#fff"/>
  <rect id="Rectángulo_156" data-name="Rectángulo 156" width="3.657" height="3.657" transform="translate(25.6 18.286)" fill="#ffbf00"/>
  <rect id="Rectángulo_157" data-name="Rectángulo 157" width="3.657" height="3.657" transform="translate(25.6 14.629)" fill="#ffbf00"/>
  <rect id="Rectángulo_158" data-name="Rectángulo 158" width="3.657" height="3.657" transform="translate(25.6 10.972)" fill="#d48200"/>
  <rect id="Rectángulo_159" data-name="Rectángulo 159" width="3.657" height="3.657" transform="translate(25.6 7.314)" fill="#ffbf00"/>
  <rect id="Rectángulo_160" data-name="Rectángulo 160" width="3.657" height="3.657" transform="translate(25.6 3.657)"/>
  <rect id="Rectángulo_161" data-name="Rectángulo 161" width="3.657" height="3.657" transform="translate(21.943 36.572)"/>
  <rect id="Rectángulo_162" data-name="Rectángulo 162" width="3.657" height="3.657" transform="translate(21.943 32.915)" fill="#ffbf00"/>
  <rect id="Rectángulo_163" data-name="Rectángulo 163" width="3.657" height="3.657" transform="translate(21.943 29.258)" fill="#ffbf00"/>
  <rect id="Rectángulo_164" data-name="Rectángulo 164" width="3.657" height="3.657" transform="translate(21.943 25.6)" fill="#fff"/>
  <rect id="Rectángulo_165" data-name="Rectángulo 165" width="3.657" height="3.657" transform="translate(21.943 21.943)" fill="#ffbf00"/>
  <rect id="Rectángulo_166" data-name="Rectángulo 166" width="3.657" height="3.657" transform="translate(21.943 18.286)" fill="#d48200"/>
  <rect id="Rectángulo_167" data-name="Rectángulo 167" width="3.657" height="3.657" transform="translate(21.943 14.629)" fill="#ffbf00"/>
  <rect id="Rectángulo_168" data-name="Rectángulo 168" width="3.657" height="3.657" transform="translate(21.943 10.972)" fill="#d48200"/>
  <rect id="Rectángulo_169" data-name="Rectángulo 169" width="3.657" height="3.657" transform="translate(21.943 7.314)" fill="#d48200"/>
  <rect id="Rectángulo_170" data-name="Rectángulo 170" width="3.657" height="3.657" transform="translate(21.943 3.657)" fill="#ffbf00"/>
  <rect id="Rectángulo_171" data-name="Rectángulo 171" width="3.657" height="3.657" transform="translate(21.943)"/>
  <rect id="Rectángulo_172" data-name="Rectángulo 172" width="3.657" height="3.657" transform="translate(18.286 36.572)"/>
  <rect id="Rectángulo_173" data-name="Rectángulo 173" width="3.657" height="3.657" transform="translate(18.286 32.915)" fill="#ffbf00"/>
  <rect id="Rectángulo_174" data-name="Rectángulo 174" width="3.657" height="3.657" transform="translate(18.286 29.258)" fill="#ffbf00"/>
  <rect id="Rectángulo_175" data-name="Rectángulo 175" width="3.657" height="3.657" transform="translate(18.286 25.6)" fill="#ffbf00"/>
  <rect id="Rectángulo_176" data-name="Rectángulo 176" width="3.657" height="3.657" transform="translate(18.286 21.943)" fill="#ffbf00"/>
  <rect id="Rectángulo_177" data-name="Rectángulo 177" width="3.657" height="3.657" transform="translate(18.286 18.286)" fill="#ffbf00"/>
  <rect id="Rectángulo_178" data-name="Rectángulo 178" width="3.657" height="3.657" transform="translate(18.286 14.629)" fill="#d48200"/>
  <rect id="Rectángulo_179" data-name="Rectángulo 179" width="3.657" height="3.657" transform="translate(18.286 10.972)" fill="#d48200"/>
  <rect id="Rectángulo_180" data-name="Rectángulo 180" width="3.657" height="3.657" transform="translate(18.286 7.314)" fill="#fff"/>
  <rect id="Rectángulo_181" data-name="Rectángulo 181" width="3.657" height="3.657" transform="translate(18.286 3.657)" fill="#ffbf00"/>
  <rect id="Rectángulo_182" data-name="Rectángulo 182" width="3.657" height="3.657" transform="translate(18.286)"/>
  <rect id="Rectángulo_183" data-name="Rectángulo 183" width="3.657" height="3.657" transform="translate(14.629 36.572)"/>
  <rect id="Rectángulo_184" data-name="Rectángulo 184" width="3.657" height="3.657" transform="translate(14.629 32.915)"/>
  <rect id="Rectángulo_185" data-name="Rectángulo 185" width="3.657" height="3.657" transform="translate(14.629 29.258)" fill="#ffbf00"/>
  <rect id="Rectángulo_186" data-name="Rectángulo 186" width="3.657" height="3.657" transform="translate(14.629 25.6)" fill="#ffbf00"/>
  <rect id="Rectángulo_187" data-name="Rectángulo 187" width="3.657" height="3.657" transform="translate(14.629 21.943)" fill="#d48200"/>
  <rect id="Rectángulo_188" data-name="Rectángulo 188" width="3.657" height="3.657" transform="translate(14.629 18.286)" fill="#d48200"/>
  <rect id="Rectángulo_189" data-name="Rectángulo 189" width="3.657" height="3.657" transform="translate(14.629 14.629)" fill="#d48200"/>
  <rect id="Rectángulo_190" data-name="Rectángulo 190" width="3.657" height="3.657" transform="translate(14.629 10.972)" fill="#fff"/>
  <rect id="Rectángulo_191" data-name="Rectángulo 191" width="3.657" height="3.657" transform="translate(14.629 7.314)" fill="#ffbf00"/>
  <rect id="Rectángulo_192" data-name="Rectángulo 192" width="3.657" height="3.657" transform="translate(14.629 3.657)"/>
  <rect id="Rectángulo_193" data-name="Rectángulo 193" width="3.657" height="3.657" transform="translate(14.629)"/>
  <rect id="Rectángulo_194" data-name="Rectángulo 194" width="3.657" height="3.657" transform="translate(10.972 36.572)"/>
  <rect id="Rectángulo_195" data-name="Rectángulo 195" width="3.657" height="3.657" transform="translate(10.972 32.915)" fill="#ffbf00"/>
  <rect id="Rectángulo_196" data-name="Rectángulo 196" width="3.657" height="3.657" transform="translate(10.972 29.258)"/>
  <rect id="Rectángulo_197" data-name="Rectángulo 197" width="3.657" height="3.657" transform="translate(10.972 25.6)" fill="#ffbf00"/>
  <rect id="Rectángulo_198" data-name="Rectángulo 198" width="3.657" height="3.657" transform="translate(10.972 21.943)" fill="#ffbf00"/>
  <rect id="Rectángulo_199" data-name="Rectángulo 199" width="3.657" height="3.657" transform="translate(10.972 18.286)" fill="#ffbf00"/>
  <rect id="Rectángulo_200" data-name="Rectángulo 200" width="3.657" height="3.657" transform="translate(10.972 14.629)" fill="#ffbf00"/>
  <rect id="Rectángulo_201" data-name="Rectángulo 201" width="3.657" height="3.657" transform="translate(10.972 10.972)" fill="#ffbf00"/>
  <rect id="Rectángulo_202" data-name="Rectángulo 202" width="3.657" height="3.657" transform="translate(10.972 7.314)"/>
  <rect id="Rectángulo_203" data-name="Rectángulo 203" width="3.657" height="3.657" transform="translate(10.972 3.657)" fill="#ffbf00"/>
  <rect id="Rectángulo_204" data-name="Rectángulo 204" width="3.657" height="3.657" transform="translate(10.972)"/>
  <rect id="Rectángulo_205" data-name="Rectángulo 205" width="3.657" height="3.657" transform="translate(7.314 32.915)"/>
  <rect id="Rectángulo_206" data-name="Rectángulo 206" width="3.657" height="3.657" transform="translate(7.314 29.258)" fill="#ffbf00"/>
  <rect id="Rectángulo_207" data-name="Rectángulo 207" width="3.657" height="3.657" transform="translate(7.314 25.6)"/>
  <rect id="Rectángulo_208" data-name="Rectángulo 208" width="3.657" height="3.657" transform="translate(7.314 21.943)"/>
  <rect id="Rectángulo_209" data-name="Rectángulo 209" width="3.657" height="3.657" transform="translate(7.314 18.286)"/>
  <rect id="Rectángulo_210" data-name="Rectángulo 210" width="3.657" height="3.657" transform="translate(7.314 14.629)"/>
  <rect id="Rectángulo_211" data-name="Rectángulo 211" width="3.657" height="3.657" transform="translate(7.314 10.972)"/>
  <rect id="Rectángulo_212" data-name="Rectángulo 212" width="3.657" height="3.657" transform="translate(7.314 7.314)" fill="#ffbf00"/>
  <rect id="Rectángulo_213" data-name="Rectángulo 213" width="3.657" height="3.657" transform="translate(7.314 3.657)"/>
  <rect id="Rectángulo_214" data-name="Rectángulo 214" width="3.657" height="3.657" transform="translate(3.657 29.258)"/>
  <rect id="Rectángulo_215" data-name="Rectángulo 215" width="3.657" height="3.657" transform="translate(3.657 25.6)" fill="#ffbf00"/>
  <rect id="Rectángulo_216" data-name="Rectángulo 216" width="3.657" height="3.657" transform="translate(3.657 21.943)" fill="#ffbf00"/>
  <rect id="Rectángulo_217" data-name="Rectángulo 217" width="3.657" height="3.657" transform="translate(3.657 18.286)" fill="#ffbf00"/>
  <rect id="Rectángulo_218" data-name="Rectángulo 218" width="3.657" height="3.657" transform="translate(3.657 14.629)" fill="#fff"/>
  <rect id="Rectángulo_219" data-name="Rectángulo 219" width="3.657" height="3.657" transform="translate(3.657 10.972)" fill="#fff"/>
  <rect id="Rectángulo_220" data-name="Rectángulo 220" width="3.657" height="3.657" transform="translate(3.657 7.314)"/>
  <rect id="Rectángulo_221" data-name="Rectángulo 221" width="3.657" height="3.657" transform="translate(0 25.6)"/>
  <rect id="Rectángulo_222" data-name="Rectángulo 222" width="3.657" height="3.657" transform="translate(0 21.943)"/>
  <rect id="Rectángulo_223" data-name="Rectángulo 223" width="3.657" height="3.657" transform="translate(0 18.286)"/>
  <rect id="Rectángulo_224" data-name="Rectángulo 224" width="3.657" height="3.657" transform="translate(0 14.629)"/>
  <rect id="Rectángulo_225" data-name="Rectángulo 225" width="3.657" height="3.657" transform="translate(0 10.972)"/>
</svg>
