<svg id="Grupo_1128" data-name="Grupo 1128" xmlns="http://www.w3.org/2000/svg" width="20" height="18" viewBox="0 0 39.097 36.066">
  <rect id="Rectángulo_226" data-name="Rectángulo 226" width="3.031" height="3.031" transform="translate(36.066 12.123)"/>
  <rect id="Rectángulo_227" data-name="Rectángulo 227" width="3.031" height="3.031" transform="translate(36.066 9.092)"/>
  <rect id="Rectángulo_228" data-name="Rectángulo 228" width="3.031" height="3.031" transform="translate(36.066 6.062)"/>
  <rect id="Rectángulo_229" data-name="Rectángulo 229" width="3.031" height="3.031" transform="translate(33.036 18.185)"/>
  <rect id="Rectángulo_230" data-name="Rectángulo 230" width="3.031" height="3.031" transform="translate(33.036 15.154)"/>
  <rect id="Rectángulo_231" data-name="Rectángulo 231" width="3.031" height="3.031" transform="translate(33.036 12.123)" fill="#ab0000"/>
  <rect id="Rectángulo_232" data-name="Rectángulo 232" width="3.031" height="3.031" transform="translate(33.036 9.092)" fill="#ab0000"/>
  <rect id="Rectángulo_233" data-name="Rectángulo 233" width="3.031" height="3.031" transform="translate(33.036 6.062)" fill="#ab0000"/>
  <rect id="Rectángulo_234" data-name="Rectángulo 234" width="3.031" height="3.031" transform="translate(33.036 3.031)"/>
  <rect id="Rectángulo_235" data-name="Rectángulo 235" width="3.031" height="3.031" transform="translate(30.005 21.216)"/>
  <rect id="Rectángulo_236" data-name="Rectángulo 236" width="3.031" height="3.031" transform="translate(30.005 18.185)" fill="#ab0000"/>
  <rect id="Rectángulo_237" data-name="Rectángulo 237" width="3.031" height="3.031" transform="translate(30.005 15.154)" fill="#ab0000"/>
  <rect id="Rectángulo_238" data-name="Rectángulo 238" width="3.031" height="3.031" transform="translate(30.005 12.123)" fill="red"/>
  <rect id="Rectángulo_239" data-name="Rectángulo 239" width="3.031" height="3.031" transform="translate(30.005 9.092)" fill="red"/>
  <rect id="Rectángulo_240" data-name="Rectángulo 240" width="3.031" height="3.031" transform="translate(30.005 6.062)" fill="red"/>
  <rect id="Rectángulo_241" data-name="Rectángulo 241" width="3.031" height="3.031" transform="translate(30.005 3.031)" fill="#ab0000"/>
  <rect id="Rectángulo_242" data-name="Rectángulo 242" width="3.031" height="3.031" transform="translate(30.005 0)"/>
  <rect id="Rectángulo_243" data-name="Rectángulo 243" width="3.031" height="2.728" transform="translate(26.974 24.246)"/>
  <rect id="Rectángulo_244" data-name="Rectángulo 244" width="3.031" height="3.031" transform="translate(26.974 21.216)" fill="#ab0000"/>
  <rect id="Rectángulo_245" data-name="Rectángulo 245" width="3.031" height="3.031" transform="translate(26.974 18.185)" fill="red"/>
  <rect id="Rectángulo_246" data-name="Rectángulo 246" width="3.031" height="3.031" transform="translate(26.974 15.154)" fill="red"/>
  <rect id="Rectángulo_247" data-name="Rectángulo 247" width="3.031" height="3.031" transform="translate(26.974 12.123)" fill="red"/>
  <rect id="Rectángulo_248" data-name="Rectángulo 248" width="3.031" height="3.031" transform="translate(26.974 9.092)" fill="red"/>
  <rect id="Rectángulo_249" data-name="Rectángulo 249" width="3.031" height="3.031" transform="translate(26.974 6.062)" fill="red"/>
  <rect id="Rectángulo_250" data-name="Rectángulo 250" width="3.031" height="3.031" transform="translate(26.974 3.031)" fill="red"/>
  <rect id="Rectángulo_251" data-name="Rectángulo 251" width="3.031" height="3.031" transform="translate(26.974 0)"/>
  <rect id="Rectángulo_252" data-name="Rectángulo 252" width="3.031" height="3.031" transform="translate(23.943 26.974)"/>
  <rect id="Rectángulo_253" data-name="Rectángulo 253" width="3.031" height="2.728" transform="translate(23.943 24.246)" fill="#ab0000"/>
  <rect id="Rectángulo_254" data-name="Rectángulo 254" width="3.031" height="3.031" transform="translate(23.943 21.216)" fill="red"/>
  <rect id="Rectángulo_255" data-name="Rectángulo 255" width="3.031" height="3.031" transform="translate(23.943 18.185)" fill="red"/>
  <rect id="Rectángulo_256" data-name="Rectángulo 256" width="3.031" height="3.031" transform="translate(23.943 15.154)" fill="red"/>
  <rect id="Rectángulo_257" data-name="Rectángulo 257" width="3.031" height="3.031" transform="translate(23.943 12.123)" fill="red"/>
  <rect id="Rectángulo_258" data-name="Rectángulo 258" width="3.031" height="3.031" transform="translate(23.943 9.092)" fill="red"/>
  <rect id="Rectángulo_259" data-name="Rectángulo 259" width="3.031" height="3.031" transform="translate(23.943 6.062)" fill="red"/>
  <rect id="Rectángulo_260" data-name="Rectángulo 260" width="3.031" height="3.031" transform="translate(23.943 3.031)" fill="red"/>
  <rect id="Rectángulo_261" data-name="Rectángulo 261" width="3.031" height="3.031" transform="translate(23.943 0)"/>
  <rect id="Rectángulo_262" data-name="Rectángulo 262" width="3.031" height="3.031" transform="translate(20.912 30.005)"/>
  <rect id="Rectángulo_263" data-name="Rectángulo 263" width="3.031" height="3.031" transform="translate(20.912 26.974)" fill="#ab0000"/>
  <rect id="Rectángulo_264" data-name="Rectángulo 264" width="3.031" height="2.728" transform="translate(20.912 24.246)" fill="red"/>
  <rect id="Rectángulo_265" data-name="Rectángulo 265" width="3.031" height="3.031" transform="translate(20.912 21.216)" fill="red"/>
  <rect id="Rectángulo_266" data-name="Rectángulo 266" width="3.031" height="3.031" transform="translate(20.912 18.185)" fill="red"/>
  <rect id="Rectángulo_267" data-name="Rectángulo 267" width="3.031" height="3.031" transform="translate(20.912 15.154)" fill="red"/>
  <rect id="Rectángulo_268" data-name="Rectángulo 268" width="3.031" height="3.031" transform="translate(20.912 12.123)" fill="red"/>
  <rect id="Rectángulo_269" data-name="Rectángulo 269" width="3.031" height="3.031" transform="translate(20.912 9.092)" fill="red"/>
  <rect id="Rectángulo_270" data-name="Rectángulo 270" width="3.031" height="3.031" transform="translate(20.912 6.062)" fill="red"/>
  <rect id="Rectángulo_271" data-name="Rectángulo 271" width="3.031" height="3.031" transform="translate(20.912 3.031)"/>
  <rect id="Rectángulo_272" data-name="Rectángulo 272" width="3.031" height="3.031" transform="translate(17.882 33.036)"/>
  <rect id="Rectángulo_273" data-name="Rectángulo 273" width="3.031" height="3.031" transform="translate(17.882 30.005)" fill="#ab0000"/>
  <rect id="Rectángulo_274" data-name="Rectángulo 274" width="3.031" height="3.031" transform="translate(17.882 26.974)" fill="red"/>
  <rect id="Rectángulo_275" data-name="Rectángulo 275" width="3.031" height="2.728" transform="translate(17.882 24.246)" fill="red"/>
  <rect id="Rectángulo_276" data-name="Rectángulo 276" width="3.031" height="3.031" transform="translate(17.882 21.216)" fill="red"/>
  <rect id="Rectángulo_277" data-name="Rectángulo 277" width="3.031" height="3.031" transform="translate(17.882 18.185)" fill="red"/>
  <rect id="Rectángulo_278" data-name="Rectángulo 278" width="3.031" height="3.031" transform="translate(17.882 15.154)" fill="red"/>
  <rect id="Rectángulo_279" data-name="Rectángulo 279" width="3.031" height="3.031" transform="translate(17.882 12.123)" fill="red"/>
  <rect id="Rectángulo_280" data-name="Rectángulo 280" width="3.031" height="3.031" transform="translate(17.882 9.092)" fill="red"/>
  <rect id="Rectángulo_281" data-name="Rectángulo 281" width="3.031" height="3.031" transform="translate(17.882 6.062)"/>
  <rect id="Rectángulo_282" data-name="Rectángulo 282" width="3.031" height="3.031" transform="translate(14.851 30.005)"/>
  <rect id="Rectángulo_283" data-name="Rectángulo 283" width="3.031" height="3.031" transform="translate(14.851 26.974)" fill="red"/>
  <rect id="Rectángulo_284" data-name="Rectángulo 284" width="3.031" height="2.728" transform="translate(14.851 24.246)" fill="red"/>
  <rect id="Rectángulo_285" data-name="Rectángulo 285" width="3.031" height="3.031" transform="translate(14.851 21.216)" fill="red"/>
  <rect id="Rectángulo_286" data-name="Rectángulo 286" width="3.031" height="3.031" transform="translate(14.851 18.185)" fill="red"/>
  <rect id="Rectángulo_287" data-name="Rectángulo 287" width="3.031" height="3.031" transform="translate(14.851 15.154)" fill="red"/>
  <rect id="Rectángulo_288" data-name="Rectángulo 288" width="3.031" height="3.031" transform="translate(14.851 12.123)" fill="red"/>
  <rect id="Rectángulo_289" data-name="Rectángulo 289" width="3.031" height="3.031" transform="translate(14.851 9.092)" fill="red"/>
  <rect id="Rectángulo_290" data-name="Rectángulo 290" width="3.031" height="3.031" transform="translate(14.851 6.062)" fill="red"/>
  <rect id="Rectángulo_291" data-name="Rectángulo 291" width="3.031" height="3.031" transform="translate(14.851 3.031)"/>
  <rect id="Rectángulo_292" data-name="Rectángulo 292" width="3.031" height="3.031" transform="translate(11.82 26.974)"/>
  <rect id="Rectángulo_293" data-name="Rectángulo 293" width="3.031" height="2.728" transform="translate(11.82 24.246)" fill="red"/>
  <rect id="Rectángulo_294" data-name="Rectángulo 294" width="3.031" height="3.031" transform="translate(11.82 21.216)" fill="red"/>
  <rect id="Rectángulo_295" data-name="Rectángulo 295" width="3.031" height="3.031" transform="translate(11.82 18.185)" fill="red"/>
  <rect id="Rectángulo_296" data-name="Rectángulo 296" width="3.031" height="3.031" transform="translate(11.82 15.154)" fill="red"/>
  <rect id="Rectángulo_297" data-name="Rectángulo 297" width="3.031" height="3.031" transform="translate(11.82 12.123)" fill="red"/>
  <rect id="Rectángulo_298" data-name="Rectángulo 298" width="3.031" height="3.031" transform="translate(11.82 9.092)" fill="red"/>
  <rect id="Rectángulo_299" data-name="Rectángulo 299" width="3.031" height="3.031" transform="translate(11.82 6.062)" fill="#fff"/>
  <rect id="Rectángulo_300" data-name="Rectángulo 300" width="3.031" height="3.031" transform="translate(11.82 3.031)" fill="red"/>
  <rect id="Rectángulo_301" data-name="Rectángulo 301" width="3.031" height="3.031" transform="translate(11.82 0)"/>
  <rect id="Rectángulo_302" data-name="Rectángulo 302" width="3.031" height="2.728" transform="translate(8.789 24.246)"/>
  <rect id="Rectángulo_303" data-name="Rectángulo 303" width="3.031" height="3.031" transform="translate(8.789 21.216)" fill="red"/>
  <rect id="Rectángulo_304" data-name="Rectángulo 304" width="3.031" height="3.031" transform="translate(8.789 18.185)" fill="red"/>
  <rect id="Rectángulo_305" data-name="Rectángulo 305" width="3.031" height="3.031" transform="translate(8.789 15.154)" fill="red"/>
  <rect id="Rectángulo_306" data-name="Rectángulo 306" width="3.031" height="3.031" transform="translate(8.789 12.123)" fill="#fff"/>
  <rect id="Rectángulo_307" data-name="Rectángulo 307" width="3.031" height="3.031" transform="translate(8.789 9.092)" fill="red"/>
  <rect id="Rectángulo_308" data-name="Rectángulo 308" width="3.031" height="3.031" transform="translate(8.789 6.062)" fill="#fff"/>
  <rect id="Rectángulo_309" data-name="Rectángulo 309" width="3.031" height="3.031" transform="translate(8.789 3.031)" fill="red"/>
  <rect id="Rectángulo_310" data-name="Rectángulo 310" width="3.031" height="3.031" transform="translate(8.789 0)"/>
  <rect id="Rectángulo_311" data-name="Rectángulo 311" width="3.031" height="3.031" transform="translate(5.758 21.216)"/>
  <rect id="Rectángulo_312" data-name="Rectángulo 312" width="3.031" height="3.031" transform="translate(5.758 18.185)" fill="red"/>
  <rect id="Rectángulo_313" data-name="Rectángulo 313" width="3.031" height="3.031" transform="translate(5.758 15.154)" fill="red"/>
  <rect id="Rectángulo_314" data-name="Rectángulo 314" width="3.031" height="3.031" transform="translate(5.758 12.123)" fill="red"/>
  <rect id="Rectángulo_315" data-name="Rectángulo 315" width="3.031" height="3.031" transform="translate(5.758 9.092)" fill="#fff"/>
  <rect id="Rectángulo_316" data-name="Rectángulo 316" width="3.031" height="3.031" transform="translate(5.758 6.062)" fill="red"/>
  <rect id="Rectángulo_317" data-name="Rectángulo 317" width="3.031" height="3.031" transform="translate(5.758 3.031)" fill="red"/>
  <rect id="Rectángulo_318" data-name="Rectángulo 318" width="3.031" height="3.031" transform="translate(5.758 0)"/>
  <rect id="Rectángulo_319" data-name="Rectángulo 319" width="3.031" height="3.031" transform="translate(2.728 18.185)"/>
  <rect id="Rectángulo_320" data-name="Rectángulo 320" width="3.031" height="3.031" transform="translate(2.728 15.154)"/>
  <rect id="Rectángulo_321" data-name="Rectángulo 321" width="3.031" height="3.031" transform="translate(2.728 12.123)" fill="red"/>
  <rect id="Rectángulo_322" data-name="Rectángulo 322" width="3.031" height="3.031" transform="translate(2.728 9.092)" fill="red"/>
  <rect id="Rectángulo_323" data-name="Rectángulo 323" width="3.031" height="3.031" transform="translate(2.728 6.062)" fill="red"/>
  <rect id="Rectángulo_324" data-name="Rectángulo 324" width="3.031" height="3.031" transform="translate(2.728 3.031)"/>
  <rect id="Rectángulo_325" data-name="Rectángulo 325" width="2.728" height="3.031" transform="translate(0 12.123)"/>
  <rect id="Rectángulo_326" data-name="Rectángulo 326" width="2.728" height="3.031" transform="translate(0 9.092)"/>
  <rect id="Rectángulo_327" data-name="Rectángulo 327" width="2.728" height="3.031" transform="translate(0 6.062)"/>
</svg>
